C:/Program Files/Krita (x64)/bin/ffmpeg.exe -hide_banner -y -y -r 24 -start_number 0 -start_number_range 1 -i C:/School/DIGA3008A_SikhweniRofhiwa_1/videos/frame%04d.png -c:v libopenh264 -b:v 5000k C:/School/DIGA3008A_SikhweniRofhiwa_1/videos/Geto expressive walk.mkv
=====================================================
Input #0, image2, from 'C:/School/DIGA3008A_SikhweniRofhiwa_1/videos/frame%04d.png':
  Duration: 00:00:01.04, start: 0.000000, bitrate: N/A
  Stream #0:0: Video: png, rgba(pc), 1920x1080 [SAR 3937:3937 DAR 16:9], 25 fps, 25 tbr, 25 tbn, 25 tbc
Stream mapping:
  Stream #0:0 -> #0:0 (png (native) -> h264 (libopenh264))
Press [q] to stop, [?] for help
[libopenh264 @ 0000024df0741ec0] Slice count will be set automatically
[libopenh264 @ 0000024df0741ec0] [OpenH264] this = 0x0000024DF0990AB0, Warning:SliceArgumentValidationFixedSliceMode(), unsupported setting with Resolution and uiSliceNum combination under RC on! So uiSliceNum is changed to 16!
[libopenh264 @ 0000024df0741ec0] [OpenH264] this = 0x0000024DF0990AB0, Warning:bEnableFrameSkip = 0,bitrate can't be controlled for RC_QUALITY_MODE,RC_BITRATE_MODE and RC_TIMESTAMP_MODE without enabling skip frame.
Output #0, matroska, to 'C:/School/DIGA3008A_SikhweniRofhiwa_1/videos/Geto expressive walk.mkv':
  Metadata:
    encoder         : Lavf58.76.100
  Stream #0:0: Video: h264 (H264 / 0x34363248), yuv420p(tv, progressive), 1920x1080 [SAR 1:1 DAR 16:9], q=2-31, 5000 kb/s, 24 fps, 1k tbn
    Metadata:
      encoder         : Lavc58.134.100 libopenh264
    Side data:
      cpb: bitrate max/min/avg: 5000000/0/5000000 buffer size: 0 vbv_delay: N/A
frame=    1 fps=0.0 q=-0.0 size=       1kB time=00:00:00.00 bitrate=4792.0kbits/s speed=0.0189x    frame=   26 fps=0.0 q=-0.0 Lsize=     483kB time=00:00:01.04 bitrate=3790.4kbits/s speed=2.05x    
video:482kB audio:0kB subtitle:0kB other streams:0kB global headers:0kB muxing overhead: 0.169663%
